<?xml version="1.0" standalone="no"?>
<!DOCTYPE svg PUBLIC "-//W3C//DTD SVG 20010904//EN"
 "http://www.w3.org/TR/2001/REC-SVG-20010904/DTD/svg10.dtd">
<svg version="1.0" xmlns="http://www.w3.org/2000/svg"
 width="1046.000000pt" height="1046.000000pt" viewBox="0 0 1046.000000 1046.000000"
 preserveAspectRatio="xMidYMid meet">
<metadata>
Created by potrace 1.14, written by Peter Selinger 2001-2017
</metadata>
<g transform="translate(0.000000,1046.000000) scale(0.100000,-0.100000)"
fill="#000000" stroke="none">
<path d="M4032 8873 c-6 -16 -16 -67 -22 -115 -7 -49 -13 -88 -14 -88 0 0
-186 -20 -413 -45 -452 -49 -459 -50 -525 -123 -19 -21 -42 -59 -51 -83 -9
-24 -61 -368 -117 -764 -103 -729 -286 -1874 -316 -1975 -25 -85 -73 -173
-174 -320 -51 -74 -149 -217 -218 -318 -82 -121 -133 -187 -149 -193 -52 -20
-69 1 -217 271 -134 244 -140 258 -144 321 -3 50 0 75 15 106 11 22 165 228
342 457 177 229 337 444 356 479 43 78 70 182 84 322 7 61 16 148 21 195 5 47
14 137 20 200 6 63 16 148 21 188 14 110 11 272 -6 354 -18 85 -218 681 -240
715 -28 43 -65 22 -65 -37 0 -20 14 -155 30 -300 36 -317 39 -484 10 -667 -10
-71 -29 -191 -40 -268 -60 -404 -63 -412 -251 -642 -137 -166 -163 -195 -155
-173 58 168 79 262 83 375 4 118 3 127 -71 488 -41 202 -80 374 -86 382 -16
19 -44 19 -60 0 -8 -10 -18 -122 -31 -352 -10 -186 -23 -378 -29 -428 -13
-109 -50 -222 -123 -375 -30 -63 -66 -140 -80 -170 -13 -30 -39 -85 -56 -122
-36 -79 -62 -108 -95 -108 -53 0 -63 21 -111 255 -25 121 -87 414 -137 650
-121 571 -120 541 -39 1010 34 193 61 367 61 387 0 65 -49 78 -82 22 -21 -36
-151 -365 -204 -519 -38 -109 -80 -265 -113 -417 -28 -128 -28 -302 0 -508 49
-373 61 -450 85 -540 25 -92 293 -776 396 -1010 44 -99 236 -476 540 -1057 44
-84 75 -153 69 -153 -5 0 -82 45 -169 100 -199 125 -281 203 -417 395 -54 77
-115 163 -135 190 -20 28 -52 71 -71 97 -39 55 -75 71 -95 43 -18 -24 -18 -26
113 -365 121 -314 149 -376 218 -480 104 -156 460 -486 934 -866 l74 -59 -181
-5 c-151 -4 -184 -8 -198 -22 -33 -33 -13 -100 37 -125 13 -6 153 -44 311 -82
174 -43 325 -87 385 -111 319 -131 784 -465 1164 -837 l157 -153 143 -69 c323
-153 334 -156 509 -155 121 0 142 3 202 27 98 38 154 73 231 146 78 73 135
164 169 266 20 63 23 87 21 228 -1 86 -7 174 -12 195 -24 88 -124 157 -248
172 -62 8 -141 21 -388 65 -49 9 -166 29 -260 46 -324 56 -391 77 -670 213
-531 258 -937 575 -1165 911 -19 27 -56 92 -82 144 l-47 95 126 246 c134 262
167 324 246 465 132 236 136 239 724 599 758 464 729 445 793 511 79 80 103
121 170 293 34 86 75 192 92 234 59 152 89 192 412 563 267 306 297 338 306
328 66 -71 525 -593 557 -633 74 -93 129 -197 208 -395 101 -249 127 -297 205
-375 59 -59 120 -96 642 -393 573 -325 643 -369 727 -456 82 -86 309 -454 500
-813 l62 -117 -31 -78 c-81 -203 -202 -386 -368 -557 -269 -275 -620 -485
-1153 -686 -204 -78 -610 -161 -953 -195 -160 -16 -211 -34 -274 -96 -51 -50
-61 -77 -73 -206 -13 -144 -6 -232 26 -330 77 -229 273 -389 522 -425 151 -22
275 13 593 170 l135 66 170 171 c397 398 886 752 1203 871 37 14 193 59 346
100 154 42 287 79 297 84 60 33 91 123 47 139 -12 4 -101 6 -198 3 -121 -3
-179 -1 -184 6 -10 16 14 38 394 382 190 172 390 353 444 404 103 94 163 175
216 289 53 112 251 670 248 696 -4 36 -46 40 -75 9 -11 -13 -92 -126 -179
-253 -196 -285 -242 -332 -461 -475 -92 -60 -169 -108 -171 -105 -2 2 122 257
276 567 154 310 298 606 320 658 70 166 340 884 366 973 41 142 106 657 106
842 0 141 -38 333 -110 560 -36 111 -220 570 -248 619 -34 58 -82 42 -82 -28
0 -103 85 -601 135 -791 14 -52 22 -107 20 -130 -2 -22 -9 -112 -16 -200 -41
-602 -172 -1120 -295 -1171 -65 -27 -75 -15 -207 256 -65 135 -128 267 -139
294 -43 111 -58 208 -83 566 -28 399 -30 413 -50 430 -18 15 -51 5 -60 -18 -8
-20 -130 -681 -140 -758 -11 -82 12 -229 55 -360 21 -65 37 -120 36 -122 -5
-5 -226 254 -269 314 -75 107 -92 166 -152 520 -83 494 -83 488 -35 969 5 55
13 141 16 191 7 87 6 92 -14 103 -33 18 -55 -12 -90 -120 -16 -52 -58 -182
-92 -289 -34 -107 -69 -215 -77 -240 -35 -106 -40 -293 -13 -479 5 -36 19
-145 30 -241 56 -480 58 -486 116 -602 31 -61 126 -185 609 -788 122 -152 130
-167 129 -260 l0 -75 -139 -279 c-77 -154 -147 -284 -156 -289 -34 -21 -66 2
-137 95 -113 152 -235 327 -339 484 -76 117 -117 168 -195 243 -141 135 -182
201 -338 536 -15 33 -67 143 -115 245 -48 102 -100 212 -115 245 -15 33 -56
119 -91 190 -56 115 -63 137 -63 191 -1 98 11 109 290 249 230 115 239 121
242 151 3 27 -1 33 -28 44 -26 11 -66 8 -275 -20 l-244 -33 -48 24 c-31 16
-53 35 -64 59 -19 39 -149 637 -149 686 0 17 10 44 22 59 42 53 56 55 452 55
345 0 365 1 387 19 30 24 19 48 -32 73 -19 9 -214 53 -434 97 -220 45 -424 90
-454 101 -80 30 -174 101 -210 159 -36 59 -62 76 -91 61 -11 -6 -23 -22 -26
-35 -15 -60 65 -901 122 -1290 47 -318 52 -336 175 -615 224 -513 389 -913
389 -947 0 -19 -4 -24 -16 -19 -8 3 -104 59 -212 123 -200 119 -266 172 -319
256 -13 21 -142 330 -284 686 -273 678 -303 746 -374 847 -37 54 -235 285
-466 545 l-68 76 65 109 c62 106 75 146 53 159 -23 15 -58 -9 -122 -85 -38
-44 -72 -80 -77 -80 -5 0 -39 36 -76 79 -80 94 -107 112 -130 89 -21 -21 -16
-33 61 -163 l64 -110 -23 -25 c-108 -117 -478 -559 -512 -610 -61 -94 -93
-166 -200 -445 -52 -137 -108 -284 -124 -325 -16 -41 -51 -133 -79 -205 -158
-413 -195 -504 -216 -540 -39 -67 -125 -140 -216 -183 -46 -22 -194 -92 -328
-156 -134 -64 -251 -116 -260 -116 -25 0 -41 20 -41 51 0 15 25 186 55 380 52
327 58 359 91 424 19 39 49 86 67 107 17 20 222 199 455 398 443 378 468 403
498 507 18 61 20 104 10 198 -27 263 -57 536 -61 568 -3 22 -1 37 5 37 6 0 46
16 89 36 81 37 100 59 81 94 -14 26 -29 29 -111 20 -47 -5 -76 -5 -80 2 -4 5
-9 41 -13 78 -8 93 -20 120 -50 120 -17 0 -27 -8 -34 -27z m-67 -455 c-7 -62
-18 -140 -45 -337 -22 -155 -44 -221 -101 -292 -26 -34 -199 -180 -463 -393
-34 -27 -79 -64 -100 -83 -39 -33 -69 -42 -80 -24 -4 5 12 182 35 393 46 423
50 439 123 512 36 35 79 56 336 157 162 64 297 117 298 118 2 1 1 -23 -3 -51z
m1297 -320 c157 -263 201 -345 241 -453 35 -97 140 -445 135 -450 -7 -8 -49
21 -246 170 l-198 150 13 26 c25 51 -15 79 -64 44 -19 -13 -25 -12 -61 8 -39
21 -42 21 -58 5 -16 -15 -16 -19 3 -50 l20 -34 -209 -158 c-213 -160 -238
-177 -238 -157 0 7 27 105 60 219 87 305 104 342 282 645 72 122 138 234 147
249 9 16 19 28 22 28 3 0 72 -109 151 -242z"/>
</g>
</svg>
