<?xml version="1.0" standalone="no"?>
<!DOCTYPE svg PUBLIC "-//W3C//DTD SVG 20010904//EN"
 "http://www.w3.org/TR/2001/REC-SVG-20010904/DTD/svg10.dtd">
<svg version="1.0" xmlns="http://www.w3.org/2000/svg"
 width="1024.000000pt" height="1024.000000pt" viewBox="0 0 1024.000000 1024.000000"
 preserveAspectRatio="xMidYMid meet">
<metadata>
Created by potrace 1.11, written by Peter Selinger 2001-2013
</metadata>
<g transform="translate(0.000000,1024.000000) scale(0.100000,-0.100000)"
fill="#000000" stroke="none">
<path d="M4042 8728 c-9 -12 -25 -96 -41 -219 -1 -4 -43 -10 -93 -14 -51 -5
-104 -9 -118 -11 -14 -1 -45 -5 -70 -8 -25 -3 -63 -8 -85 -10 -97 -10 -172
-18 -195 -22 -14 -2 -56 -6 -95 -10 -128 -11 -186 -23 -229 -48 -69 -41 -109
-105 -121 -196 -3 -25 -12 -85 -19 -135 -8 -49 -14 -97 -15 -105 0 -8 -7 -58
-15 -110 -8 -52 -18 -115 -21 -140 -3 -25 -13 -90 -21 -145 -8 -55 -17 -118
-19 -140 -3 -22 -7 -51 -10 -65 -2 -14 -7 -45 -10 -70 -3 -25 -8 -56 -10 -70
-2 -14 -7 -45 -10 -70 -3 -25 -8 -56 -11 -70 -2 -14 -6 -43 -9 -65 -2 -22 -6
-53 -9 -70 -3 -16 -15 -93 -26 -170 -21 -139 -26 -172 -34 -210 -6 -30 -27
-161 -31 -187 -1 -13 -26 -162 -55 -333 -28 -170 -53 -322 -55 -337 -11 -79
-29 -158 -51 -220 -24 -66 -80 -171 -107 -200 -6 -8 -16 -21 -22 -31 -5 -9
-46 -70 -90 -134 -295 -435 -293 -433 -336 -433 -35 0 -61 29 -110 120 -22 41
-53 98 -68 125 -37 65 -108 198 -139 258 -32 64 -35 155 -6 212 15 30 310 420
427 565 7 8 34 44 62 80 27 36 52 67 55 70 20 18 136 183 155 220 35 70 62
159 70 225 3 33 10 101 16 150 12 107 16 152 24 225 3 30 12 118 21 195 23
202 25 336 8 439 -8 49 -19 94 -23 100 -5 6 -9 14 -9 19 -1 13 -173 530 -194
580 -16 36 -26 47 -43 47 -13 0 -25 -6 -28 -14 -6 -15 -3 -78 9 -175 3 -31 7
-67 9 -81 2 -24 14 -129 20 -180 2 -14 7 -54 11 -90 15 -122 10 -359 -11 -480
-18 -111 -25 -150 -29 -180 -5 -37 -43 -291 -52 -350 -8 -50 -32 -117 -62
-175 -24 -46 -113 -167 -151 -206 -18 -18 -38 -42 -96 -114 -73 -91 -79 -94
-58 -27 44 143 64 210 69 237 14 68 10 229 -7 309 -9 44 -19 95 -22 111 -3 17
-12 63 -21 102 -15 69 -19 88 -31 158 -20 107 -56 267 -66 289 -12 26 -25 32
-45 18 -22 -14 -25 -37 -39 -307 -22 -445 -27 -493 -51 -590 -25 -103 -40
-136 -260 -602 -21 -42 -48 -65 -79 -65 -30 0 -72 25 -72 44 0 7 -8 49 -18 93
-9 44 -19 89 -21 100 -2 11 -6 29 -8 40 -2 11 -13 65 -25 120 -11 55 -32 154
-46 220 -14 66 -28 131 -30 145 -3 14 -14 68 -25 120 -11 52 -29 138 -40 190
-11 52 -27 127 -35 165 -33 146 -39 293 -17 415 7 36 14 79 17 95 3 17 8 42
11 57 3 15 7 39 9 55 3 15 6 42 9 58 5 29 41 234 51 286 13 70 12 130 -2 144
-37 38 -56 8 -152 -242 -46 -120 -90 -231 -97 -248 -37 -86 -113 -376 -143
-545 -10 -55 -8 -305 3 -349 3 -13 8 -49 11 -80 4 -31 8 -63 10 -71 2 -8 7
-44 10 -80 4 -36 9 -74 11 -85 2 -11 7 -46 10 -77 5 -61 10 -89 18 -116 3 -9
8 -30 10 -47 14 -77 159 -470 266 -722 22 -52 32 -75 92 -223 58 -144 149
-332 311 -641 35 -68 99 -191 142 -274 43 -82 109 -210 147 -283 38 -73 68
-137 66 -143 -8 -23 -340 197 -427 283 -34 35 -140 170 -233 301 -94 131 -179
242 -189 247 -32 18 -52 1 -46 -39 4 -31 63 -197 102 -286 7 -16 20 -50 28
-75 29 -85 119 -303 144 -349 59 -106 130 -194 265 -326 151 -148 237 -227
392 -359 26 -22 62 -53 80 -69 17 -15 100 -82 183 -149 84 -67 153 -124 153
-127 0 -3 -81 -6 -179 -6 -162 0 -181 -2 -200 -19 -52 -47 0 -123 97 -141 77
-14 545 -136 592 -155 342 -135 823 -477 1210 -858 l145 -143 160 -79 c188
-92 276 -127 359 -145 60 -13 202 -13 260 0 97 21 211 79 294 150 88 76 178
236 197 350 15 95 2 333 -22 382 -34 72 -126 128 -228 138 -33 3 -67 8 -75 10
-8 2 -28 6 -45 9 -58 9 -210 36 -235 41 -31 7 -58 11 -140 25 -36 6 -90 15
-120 20 -30 5 -73 12 -95 15 -269 41 -516 138 -873 341 -96 55 -350 221 -406
266 -141 113 -218 181 -311 278 -80 84 -195 230 -195 249 0 6 -4 11 -9 11 -4
0 -32 48 -61 106 l-53 107 97 191 c118 235 181 355 277 527 62 112 88 148 159
219 81 81 114 103 690 455 749 458 724 436 835 723 153 392 159 402 364 637
62 71 125 144 140 160 14 17 87 99 160 183 74 83 136 152 140 152 12 0 27 -16
93 -92 68 -78 88 -101 178 -202 29 -32 64 -72 79 -89 33 -38 32 -37 122 -137
149 -166 200 -249 283 -453 93 -228 133 -317 162 -358 54 -78 138 -143 325
-249 101 -58 191 -109 201 -115 9 -5 34 -20 55 -31 81 -45 475 -270 606 -346
223 -130 287 -200 486 -533 39 -66 76 -127 81 -135 12 -19 163 -295 207 -378
18 -34 33 -69 33 -77 0 -41 -154 -344 -214 -420 -9 -11 -39 -49 -66 -85 -72
-92 -240 -253 -351 -337 -244 -183 -570 -351 -964 -495 -186 -68 -634 -153
-965 -183 -117 -11 -212 -62 -260 -139 -21 -34 -35 -171 -33 -307 5 -252 178
-483 427 -569 90 -31 246 -41 314 -21 18 5 33 10 35 10 11 -1 71 18 107 33 25
11 54 24 65 28 11 5 88 41 170 81 l150 72 165 163 c91 90 177 173 191 186 14
13 41 37 60 53 247 219 571 452 776 559 164 85 225 105 688 227 44 12 94 25
112 31 37 11 103 79 103 107 0 39 -21 43 -207 38 -98 -2 -184 -2 -190 0 -33
12 -7 44 127 163 40 36 85 76 100 90 23 21 142 129 226 205 12 11 59 54 104
95 46 41 91 82 100 90 10 8 58 53 109 99 50 46 104 95 120 110 35 31 110 139
146 212 29 56 220 566 254 679 10 30 -3 70 -22 70 -24 0 -54 -37 -208 -262
-193 -282 -268 -360 -487 -501 -83 -55 -156 -97 -161 -95 -5 1 113 249 262
550 150 300 279 561 287 580 77 177 100 232 100 239 0 5 9 29 21 53 11 25 22
51 23 58 2 7 6 20 9 28 4 8 59 152 122 320 138 363 173 488 190 680 3 25 7 61
9 80 6 38 16 124 22 180 1 19 6 60 10 90 14 113 8 350 -10 400 -3 8 -7 27 -10
41 -10 64 -78 304 -110 390 -19 51 -67 173 -106 269 -128 314 -131 319 -171
279 -15 -15 -19 -29 -15 -57 3 -20 8 -64 11 -97 3 -33 8 -67 10 -75 4 -17 11
-60 20 -135 4 -27 10 -66 15 -85 5 -19 11 -55 15 -80 4 -37 30 -157 73 -335
11 -47 4 -275 -13 -420 -2 -22 -7 -67 -10 -100 -3 -33 -7 -69 -9 -80 -2 -11
-7 -47 -11 -80 -4 -33 -9 -69 -10 -80 -2 -11 -10 -60 -20 -110 -9 -49 -19
-101 -21 -115 -3 -14 -12 -50 -20 -80 -8 -30 -17 -64 -19 -74 -12 -51 -51
-158 -82 -223 -53 -110 -106 -145 -162 -106 -14 10 -59 89 -113 202 -50 102
-107 220 -127 261 -66 133 -92 240 -105 435 -4 50 -8 115 -11 145 -5 61 -13
170 -21 305 -10 176 -23 217 -65 194 -15 -7 -22 -24 -34 -79 -1 -3 -4 -18 -8
-35 -4 -16 -9 -46 -12 -65 -3 -19 -13 -73 -21 -120 -9 -47 -17 -92 -19 -100
-1 -8 -16 -82 -31 -165 -23 -117 -29 -177 -28 -275 0 -143 2 -155 51 -305 20
-60 38 -117 41 -125 5 -18 -34 23 -107 110 -30 36 -60 70 -65 75 -26 25 -105
124 -130 163 -40 65 -85 183 -92 244 -3 29 -8 56 -10 60 -2 3 -7 30 -10 60 -3
29 -8 56 -10 59 -2 4 -6 28 -9 55 -3 27 -8 56 -11 65 -2 10 -6 30 -9 45 -2 16
-14 88 -26 159 -30 178 -32 378 -4 610 2 22 7 65 10 95 25 271 25 290 3 304
-34 21 -57 -26 -128 -259 -10 -33 -39 -125 -65 -205 -57 -176 -73 -232 -81
-289 -10 -73 -12 -184 -4 -247 5 -32 11 -84 14 -114 11 -98 17 -144 26 -215 5
-38 12 -92 15 -120 6 -61 13 -123 20 -172 2 -21 7 -58 10 -83 15 -128 51 -233
108 -319 25 -39 211 -277 227 -291 3 -3 28 -34 55 -70 28 -36 57 -74 67 -85
39 -47 85 -104 108 -135 14 -18 30 -38 35 -44 52 -57 182 -230 197 -264 24
-53 28 -114 13 -167 -19 -60 -262 -549 -283 -568 -34 -31 -59 -28 -92 7 -41
43 -277 374 -397 556 -75 112 -121 169 -205 253 -60 59 -129 139 -154 177 -24
38 -99 185 -165 327 -67 142 -150 318 -185 392 -35 73 -64 135 -64 137 0 2
-31 68 -68 146 -83 173 -96 208 -87 251 13 62 48 100 126 139 41 20 143 70
227 112 163 81 196 104 190 133 -7 38 -57 41 -241 16 -95 -12 -208 -26 -252
-29 -73 -6 -83 -4 -114 17 -53 37 -69 67 -91 174 -12 55 -42 197 -67 315 -51
239 -55 276 -30 314 37 55 46 56 435 57 364 0 422 5 422 37 -1 43 -40 62 -175
86 -16 3 -138 28 -270 55 -132 27 -252 52 -265 54 -187 35 -231 50 -315 104
-70 46 -77 52 -115 108 -39 58 -47 65 -77 65 -24 0 -35 -25 -36 -83 0 -34 11
-213 18 -282 2 -22 7 -74 10 -115 4 -41 8 -88 10 -105 2 -16 7 -66 10 -110 3
-44 8 -87 10 -95 2 -8 6 -46 9 -85 3 -38 8 -79 10 -90 2 -11 7 -50 10 -87 4
-37 9 -77 11 -90 2 -13 7 -45 10 -73 4 -27 11 -77 16 -110 5 -33 11 -78 14
-100 3 -22 12 -72 20 -112 8 -39 18 -88 21 -109 5 -31 117 -301 178 -429 8
-16 47 -106 86 -200 40 -93 78 -183 85 -200 43 -95 156 -383 160 -407 4 -21 1
-28 -11 -28 -9 0 -108 55 -220 121 -257 153 -307 203 -385 384 -4 11 -114 286
-244 610 -244 609 -279 688 -348 790 -31 47 -175 220 -242 291 -5 6 -32 37
-60 69 -27 33 -63 73 -78 89 -16 17 -43 48 -60 70 -18 21 -39 46 -47 55 -58
62 -58 51 1 153 86 148 85 146 67 164 -23 23 -44 8 -123 -86 -38 -44 -72 -80
-76 -80 -4 0 -12 6 -16 14 -15 25 -128 147 -150 161 -19 13 -24 13 -37 -1 -14
-14 -13 -20 8 -62 13 -26 45 -81 70 -122 49 -79 54 -94 33 -107 -7 -4 -32 -33
-57 -63 -25 -30 -47 -57 -51 -60 -3 -3 -35 -39 -70 -80 -35 -41 -72 -84 -82
-95 -190 -207 -320 -395 -373 -539 -14 -39 -30 -80 -35 -91 -4 -11 -54 -139
-109 -285 -55 -146 -105 -274 -110 -285 -5 -11 -48 -123 -95 -250 -48 -126
-90 -239 -95 -250 -76 -186 -134 -249 -297 -326 -59 -28 -148 -71 -198 -94
-366 -174 -356 -170 -392 -166 -25 2 -34 39 -24 99 6 31 13 77 16 102 6 45 10
67 19 125 11 65 55 342 61 380 24 160 68 225 272 401 76 65 140 121 143 124 3
3 32 27 65 55 33 27 74 62 90 76 42 38 122 106 180 156 28 23 61 51 75 63 14
12 50 43 80 68 86 74 110 103 143 172 26 54 31 77 31 140 1 65 -10 213 -19
260 -2 8 -6 50 -9 92 -4 42 -9 86 -11 96 -6 32 -19 175 -19 220 l-1 43 75 32
c96 41 100 44 100 71 0 41 -21 48 -115 41 l-85 -7 -1 28 c0 16 -3 43 -5 59 -2
17 -6 45 -8 63 -6 53 -40 79 -64 50z m-66 -435 c-3 -10 -8 -43 -11 -73 -3 -30
-7 -62 -10 -70 -2 -8 -7 -46 -10 -85 -4 -38 -8 -72 -10 -75 -2 -3 -6 -30 -9
-60 -14 -126 -18 -142 -43 -200 -43 -98 -73 -128 -371 -372 -167 -136 -305
-242 -316 -242 -19 -1 -21 5 -21 54 0 49 12 188 20 229 1 9 6 52 10 96 4 44 8
91 10 105 7 52 14 117 20 170 12 119 17 147 36 185 37 79 88 118 222 169 67
26 131 51 142 56 62 28 322 129 333 129 8 1 11 -6 8 -16z m1285 -343 c115
-191 237 -414 241 -440 0 -3 2 -9 4 -15 58 -176 134 -431 134 -449 0 -9 -5
-16 -11 -16 -15 0 -439 319 -439 330 0 5 5 12 10 15 13 8 13 52 1 59 -11 7
-63 -11 -72 -25 -4 -7 -11 -6 -20 3 -26 25 -65 38 -78 25 -16 -16 -14 -38 6
-60 17 -18 17 -20 -3 -35 -129 -105 -410 -312 -421 -312 -21 0 -16 27 47 244
71 245 113 350 206 508 38 65 107 183 154 263 46 80 88 144 92 143 4 -2 71
-109 149 -238z"/>
<path d="M3385 5048 c-82 -11 -169 -41 -240 -85 -97 -60 -131 -92 -187 -178
-138 -211 -67 -470 132 -478 40 -1 57 4 91 28 59 42 63 62 28 119 -37 58 -53
132 -47 211 9 103 57 148 155 148 144 -1 226 -124 218 -326 -7 -168 -107 -369
-306 -617 -83 -105 -108 -133 -205 -239 -83 -90 -124 -142 -145 -182 -33 -66
-25 -101 32 -129 35 -18 52 -20 176 -14 163 8 447 8 555 1 108 -7 160 7 209
52 37 36 39 41 39 96 0 79 -29 138 -83 169 -84 48 -182 51 -402 11 -16 -4 -54
-12 -84 -20 l-54 -14 64 66 c35 37 69 72 74 78 6 7 25 28 42 48 60 66 158 192
195 247 134 206 188 356 193 535 6 216 -69 363 -222 437 -74 35 -145 46 -228
36z"/>
<path d="M5650 5049 c-99 -11 -185 -44 -281 -109 -92 -62 -144 -123 -186 -218
-31 -71 -35 -91 -35 -173 0 -68 24 -143 60 -182 29 -32 90 -58 142 -60 40 -1
57 4 92 29 38 27 43 35 42 66 -1 20 -10 49 -22 65 -27 38 -44 106 -44 175 0
105 54 168 150 172 77 4 136 -30 179 -101 54 -91 62 -217 24 -356 -52 -192
-216 -433 -507 -747 -65 -70 -89 -101 -121 -155 -35 -59 -30 -101 14 -131 25
-17 45 -19 183 -16 245 6 437 6 542 0 119 -7 177 6 226 48 36 31 37 33 37 106
0 63 -4 80 -25 111 -13 20 -40 45 -60 56 -34 19 -122 40 -151 36 -8 -1 -52 -5
-99 -9 -47 -4 -129 -17 -183 -30 l-99 -24 45 47 c292 301 456 555 508 786 16
74 18 221 4 291 -33 156 -147 283 -280 312 -77 17 -96 18 -155 11z"/>
<path d="M4440 5039 c-105 -20 -236 -109 -322 -219 -111 -140 -198 -398 -208
-610 -15 -327 30 -558 142 -731 218 -338 655 -323 879 31 74 116 138 291 155
425 2 17 7 46 10 65 4 19 8 99 9 176 3 231 -23 382 -96 542 -95 207 -249 321
-444 327 -44 1 -100 -2 -125 -6z m116 -262 c117 -61 206 -245 241 -500 9 -65
9 -302 0 -381 -21 -184 -90 -332 -181 -390 -63 -40 -164 -21 -224 42 -120 128
-185 350 -186 637 0 118 10 261 21 278 3 4 7 23 10 40 8 56 62 173 99 216 65
75 146 97 220 58z"/>
<path d="M6681 5034 c-268 -72 -470 -384 -509 -784 -11 -123 -5 -351 12 -438
29 -140 90 -288 156 -375 189 -252 534 -271 755 -44 120 123 209 307 240 497
3 19 8 42 10 50 18 66 25 328 11 453 -27 261 -145 488 -304 583 -109 66 -256
89 -371 58z m111 -243 c25 -2 126 -99 151 -145 53 -101 96 -237 113 -361 12
-90 11 -304 -2 -400 -70 -502 -403 -545 -542 -70 -12 39 -24 90 -27 115 -4 24
-9 48 -12 53 -9 15 -11 313 -2 387 28 224 121 400 224 422 18 4 31 4 97 -1z"/>
</g>
</svg>
