<?xml version="1.0" standalone="no"?>
<!DOCTYPE svg PUBLIC "-//W3C//DTD SVG 20010904//EN"
 "http://www.w3.org/TR/2001/REC-SVG-20010904/DTD/svg10.dtd">
<svg version="1.0" xmlns="http://www.w3.org/2000/svg"
 width="119.000000pt" height="119.000000pt" viewBox="0 0 119.000000 119.000000"
 preserveAspectRatio="xMidYMid meet">
<metadata>
Created by potrace 1.11, written by Peter Selinger 2001-2013
</metadata>
<g transform="translate(0.000000,119.000000) scale(0.100000,-0.100000)"
fill="#000000" stroke="none">
<path d="M830 1141 c0 -25 -25 -28 -38 -5 -14 25 -66 10 -59 -16 6 -22 -20
-35 -38 -20 -19 16 -57 -9 -51 -33 6 -24 -3 -49 -16 -41 -5 3 -22 8 -36 9 -15
2 -53 7 -85 11 -64 8 -90 -5 -101 -52 -6 -22 -11 -25 -35 -19 -19 4 -35 0 -52
-13 -28 -23 -73 -22 -77 0 -4 22 -31 31 -49 16 -11 -9 -16 -9 -22 1 -11 17
-46 10 -46 -9 0 -10 -10 -15 -30 -15 -25 0 -30 -4 -30 -25 0 -14 -6 -25 -13
-25 -23 0 -32 -28 -16 -46 13 -15 13 -17 -1 -22 -22 -9 -19 -38 5 -44 15 -4
19 -11 14 -25 -7 -25 12 -47 35 -41 12 3 20 -2 24 -16 5 -21 37 -30 37 -11 0
6 7 10 15 10 8 0 15 -5 15 -11 0 -6 10 -9 23 -7 12 2 21 9 19 17 -2 10 4 12
22 7 14 -3 28 -2 31 4 3 5 11 10 18 10 6 0 -3 -13 -21 -30 -25 -23 -32 -36
-30 -62 4 -40 -26 -51 -48 -19 -19 26 -32 26 -63 0 l-24 -20 23 -24 c19 -20
21 -27 10 -40 -12 -14 -15 -14 -36 0 -33 21 -40 19 -55 -16 -11 -28 -10 -33 6
-45 10 -7 23 -15 28 -17 6 -2 8 -11 4 -20 -4 -12 -18 -17 -42 -17 -34 0 -35
-1 -35 -40 0 -39 1 -40 35 -40 27 0 35 -4 35 -18 0 -11 -11 -24 -25 -30 -28
-13 -32 -38 -11 -67 12 -17 17 -18 41 -7 21 10 31 10 41 1 13 -10 12 -15 -6
-34 -27 -28 -25 -39 7 -65 l27 -21 19 25 c20 28 25 30 45 18 10 -7 10 -15 2
-37 -12 -33 -7 -40 37 -50 29 -6 32 -4 38 24 9 43 43 43 52 1 6 -31 17 -35 61
-24 19 6 22 11 17 35 -8 35 16 40 42 9 10 -11 23 -20 29 -20 6 0 19 -11 28
-25 21 -33 35 -32 82 6 22 17 53 41 69 55 17 13 105 83 198 156 92 73 184 145
205 160 20 14 55 42 77 61 35 31 38 38 27 54 -6 10 -15 25 -18 33 -3 8 -11 29
-19 45 -7 17 -16 38 -19 48 -3 9 -11 19 -18 21 -48 15 -50 16 -39 30 7 8 20
12 30 9 26 -7 39 44 15 62 -19 13 -11 35 12 35 9 0 14 11 14 35 0 28 -4 35
-20 35 -24 0 -26 25 -3 39 15 8 15 13 5 36 -9 20 -17 25 -32 20 -24 -8 -40 22
-19 35 11 7 9 14 -10 34 -18 19 -28 23 -37 15 -18 -15 -36 -1 -29 22 9 27 -42
51 -59 28 -13 -19 -41 -11 -41 11 0 10 -12 16 -32 18 -28 3 -33 0 -33 -17z
m68 -97 c27 -8 28 -23 1 -76 -23 -45 -35 -42 -49 13 -4 19 -11 42 -15 52 -6
13 -2 17 16 17 13 0 34 -3 47 -6z m-89 -63 c10 -30 9 -32 -7 -26 -9 5 -36 13
-60 20 -40 10 -42 12 -25 27 53 45 71 41 92 -21z m211 39 c0 -5 -5 -10 -11
-10 -5 0 -7 5 -4 10 3 6 8 10 11 10 2 0 4 -4 4 -10z m-455 -29 c59 -27 93 -69
104 -126 10 -52 -4 -95 -32 -95 -31 0 -89 23 -117 47 -49 40 -89 138 -74 178
8 21 70 19 119 -4z m455 -56 c0 -12 -25 -27 -72 -44 -41 -15 -44 2 -11 65 l28
55 28 -33 c15 -18 27 -37 27 -43z m-632 -9 c34 -18 75 -62 96 -103 28 -56 16
-156 -20 -170 -26 -10 -101 36 -127 76 -38 62 -28 211 15 211 5 0 21 -6 36
-14z m388 -2 c53 -25 84 -68 84 -117 0 -66 -7 -71 -75 -55 -67 15 -89 40 -100
115 -10 71 20 90 91 57z m-547 -40 c27 -34 26 -57 -1 -88 -33 -36 -75 -39
-108 -6 -43 43 -7 120 55 120 24 0 39 -7 54 -26z m806 -36 c-16 -78 -15 -78
-75 -48 -47 24 -53 50 -12 50 15 1 38 7 52 15 37 21 42 18 35 -17z m-76 -140
c-18 -16 -37 -28 -41 -28 -15 0 -31 48 -24 74 l6 26 46 -23 46 -22 -33 -27z
m-164 23 c61 -20 79 -49 64 -104 -10 -36 -54 -81 -70 -71 -5 3 -6 -1 -3 -9 16
-42 -44 -102 -102 -100 -19 1 -34 -3 -34 -8 0 -15 -58 -39 -94 -39 -22 0 -45
9 -63 24 -25 22 -28 30 -27 88 0 37 7 76 17 94 9 18 21 54 27 80 6 27 16 54
22 61 14 17 194 6 263 -16z m227 -33 c-7 -7 -12 -8 -12 -2 0 14 12 26 19 19 2
-3 -1 -11 -7 -17z m-630 -41 c55 -42 64 -61 60 -130 l-4 -57 -35 0 c-73 0
-123 57 -123 140 0 86 32 100 102 47z m637 0 c-2 -1 -13 -9 -24 -17 -19 -14
-19 -14 -6 3 7 9 18 17 24 17 6 0 8 -1 6 -3z m104 -136 c-11 -13 -16 -12 -38
9 -26 24 -33 14 -14 -22 7 -13 8 -23 1 -30 -16 -16 -126 71 -112 87 9 10 16 8
37 -11 32 -30 39 -25 19 14 -22 42 -2 59 32 27 32 -30 39 -25 19 14 -11 22
-12 32 -3 41 8 8 19 -5 41 -52 26 -52 29 -66 18 -77z m-189 80 c3 -5 -19 -27
-49 -50 -75 -57 -83 -74 -49 -106 15 -14 25 -28 22 -31 -3 -3 -19 8 -35 23
-26 25 -28 32 -18 55 15 37 45 68 67 68 11 0 18 7 18 19 0 25 33 41 44 22z
m-676 -76 c13 -28 -1 -43 -23 -25 -15 13 -50 0 -58 -22 -2 -7 -7 -10 -11 -7
-11 11 3 33 37 57 40 28 41 27 55 -3z m680 -3 c9 -6 5 -12 -13 -22 -32 -17
-32 -34 0 -28 26 5 37 -16 13 -25 -9 -3 -6 -12 10 -29 19 -21 21 -26 8 -31
-11 -4 -28 10 -56 46 l-40 52 28 22 c30 26 32 26 50 15z m-638 -77 c0 -9 -7
-18 -15 -21 -8 -3 -17 -14 -20 -25 -7 -22 -35 -26 -35 -5 0 15 48 66 61 66 5
0 9 -7 9 -15z m-138 -14 c-6 -3 -14 -19 -17 -34 -6 -23 -4 -27 14 -27 14 0 21
-6 21 -20 0 -11 -7 -20 -15 -20 -19 0 -19 -20 0 -47 10 -14 12 -24 5 -28 -6
-4 -20 14 -31 41 -16 35 -20 58 -15 91 7 55 12 64 32 56 9 -3 11 -8 6 -12z
m236 -13 c9 -8 10 -14 2 -22 -8 -8 -15 -7 -23 5 -7 8 -21 21 -32 28 -18 11
-17 12 10 6 16 -4 36 -11 43 -17z m394 -6 c2 -4 24 -23 50 -42 51 -35 53 -42
16 -44 -14 -1 -23 -7 -22 -17 1 -9 -7 -21 -17 -28 -16 -9 -19 -8 -19 6 0 10
-11 39 -24 65 -16 33 -20 50 -12 58 12 12 23 13 28 2z m-82 -17 c0 -8 -6 -15
-12 -15 -7 0 -24 -3 -37 -7 -17 -4 -22 -2 -19 8 2 7 15 16 29 20 37 11 39 10
39 -6z m-374 -16 c10 -17 -13 -36 -27 -22 -12 12 -4 33 11 33 5 0 12 -5 16
-11z m139 1 c3 -5 1 -10 -4 -10 -6 0 -11 5 -11 10 0 6 2 10 4 10 3 0 8 -4 11
-10z m-65 -29 c0 -26 -50 -75 -64 -61 -7 7 -4 16 10 29 10 11 25 27 32 36 17
20 22 19 22 -4z m104 1 c-1 -7 -2 -21 -2 -32 -1 -11 -8 -20 -16 -20 -11 0 -13
7 -6 29 4 16 5 33 2 37 -4 4 0 5 8 2 8 -3 15 -10 14 -16z m-250 -17 c3 -8 17
-20 31 -25 30 -11 33 -30 5 -30 -22 0 -70 41 -70 60 0 16 27 12 34 -5z m467
-11 c19 -17 16 -37 -9 -66 -11 -14 -12 -21 -3 -31 9 -11 8 -17 -4 -27 -8 -7
-15 -9 -15 -4 0 5 -10 21 -23 36 -62 74 -59 65 -29 87 33 25 60 26 83 5z
m-141 -8 c0 -3 -4 -8 -10 -11 -5 -3 -10 -1 -10 4 0 6 5 11 10 11 6 0 10 -2 10
-4z m-143 -92 c-60 -56 -145 -66 -222 -27 -38 20 -38 20 -30 33 4 7 15 3 32
-10 23 -18 28 -19 43 -5 23 21 40 19 40 -5 0 -11 6 -20 14 -20 28 0 46 12 46
30 0 26 19 35 33 15 11 -15 15 -14 36 9 13 14 28 23 34 19 6 -3 -6 -21 -26
-39z m173 -99 c-9 -11 -15 -10 -31 6 -29 29 -42 23 -25 -10 13 -25 13 -31 2
-40 -8 -7 -16 -8 -18 -3 -1 5 -26 25 -55 44 -43 30 -50 38 -38 48 11 9 19 7
36 -9 33 -30 42 -26 23 10 -22 44 -4 62 31 29 31 -29 39 -23 19 15 -12 23 -12
30 -2 37 19 12 73 -108 58 -127z"/>
<path d="M690 304 c-9 -10 -10 -18 -2 -26 12 -12 32 -2 32 17 0 21 -16 26 -30
9z"/>
</g>
</svg>
