<?xml version="1.0" standalone="no"?>
<!DOCTYPE svg PUBLIC "-//W3C//DTD SVG 20010904//EN"
 "http://www.w3.org/TR/2001/REC-SVG-20010904/DTD/svg10.dtd">
<svg version="1.0" xmlns="http://www.w3.org/2000/svg"
 width="1400.000000pt" height="1400.000000pt" viewBox="0 0 1400.000000 1400.000000"
 preserveAspectRatio="xMidYMid meet">
<metadata>
Created by potrace 1.11, written by Peter Selinger 2001-2013
</metadata>
<g transform="translate(0.000000,1400.000000) scale(0.100000,-0.100000)"
fill="#000000" stroke="none">
<path d="M9818 13409 c-26 -20 -38 -103 -38 -254 l0 -133 -82 -7 c-97 -7 -313
-33 -344 -41 -20 -5 -23 1 -39 73 -59 271 -72 303 -118 303 -77 0 -545 -147
-584 -183 -13 -11 -23 -31 -23 -44 0 -13 24 -90 54 -171 30 -81 56 -153 58
-160 2 -7 -36 -30 -92 -56 -89 -42 -236 -120 -285 -152 -21 -14 -25 -10 -110
117 -86 126 -133 179 -159 179 -50 0 -480 -338 -492 -386 -10 -39 13 -76 126
-207 l103 -118 -85 -87 c-46 -48 -114 -124 -152 -170 -41 -49 -72 -79 -79 -75
-7 3 -67 44 -134 90 -186 128 -192 128 -267 13 -26 -38 -51 -70 -56 -70 -6 0
-36 13 -68 29 -168 84 -327 140 -556 196 -433 104 -655 118 -898 56 -138 -36
-188 -59 -294 -140 -99 -74 -203 -212 -237 -313 -41 -121 -59 -243 -55 -392 2
-80 3 -146 2 -146 0 0 -41 20 -90 44 -143 70 -356 126 -482 126 -78 0 -191
-23 -304 -61 -118 -39 -255 -159 -358 -314 -29 -44 -55 -82 -57 -85 -2 -2 -48
42 -101 98 -88 93 -100 102 -133 102 -41 0 -67 -17 -154 -101 l-60 -58 -50 40
c-27 22 -74 53 -103 70 -40 24 -52 35 -47 48 68 168 78 224 47 258 -43 49
-283 133 -385 136 -65 1 -82 -18 -121 -144 -28 -88 -36 -104 -52 -101 -10 1
-65 5 -121 9 -82 5 -103 9 -107 22 -2 9 -10 56 -17 105 -16 112 -40 146 -102
146 -112 0 -351 -54 -389 -87 -28 -25 -30 -66 -8 -160 11 -48 23 -95 26 -105
3 -12 -5 -19 -33 -28 -21 -7 -75 -32 -120 -56 -46 -24 -85 -44 -87 -44 -2 0
-31 36 -65 80 -34 44 -71 84 -81 90 -29 15 -83 12 -110 -7 -65 -44 -247 -214
-264 -245 -29 -54 -16 -82 74 -168 l79 -75 -25 -30 c-14 -16 -48 -67 -76 -112
-28 -46 -52 -83 -53 -83 -1 0 -43 18 -94 40 -106 46 -148 50 -178 18 -29 -31
-86 -176 -119 -303 l-27 -106 20 -27 c19 -25 82 -48 215 -76 l27 -5 -6 -128
c-3 -70 -7 -130 -9 -132 -2 -2 -54 -15 -116 -27 -94 -20 -117 -28 -136 -50
-21 -24 -23 -33 -17 -88 15 -130 63 -335 86 -362 17 -20 71 -17 179 11 52 13
95 23 96 22 0 -1 24 -50 51 -108 28 -58 56 -109 62 -113 22 -14 10 -33 -51
-78 -108 -79 -118 -91 -118 -142 0 -50 24 -85 163 -238 115 -127 156 -127 263
-3 25 30 54 57 65 60 13 4 37 -7 76 -38 32 -24 82 -59 111 -77 29 -18 51 -38
49 -44 -39 -92 -77 -199 -77 -215 0 -34 36 -64 106 -88 230 -80 310 -96 354
-73 13 7 31 48 55 124 l36 114 117 -5 c64 -3 120 -8 123 -12 4 -3 14 -52 23
-109 17 -111 35 -149 73 -158 34 -9 233 21 333 50 53 16 92 33 103 47 22 28
22 85 -3 179 -11 41 -20 78 -20 82 0 6 233 130 236 125 0 -1 28 -39 62 -84 64
-85 95 -113 123 -113 29 0 133 77 237 177 98 94 102 100 102 140 0 39 -5 47
-81 121 l-82 79 39 51 c21 29 41 52 44 52 4 0 12 -24 19 -52 14 -56 103 -303
120 -334 21 -39 61 -127 59 -129 -2 -1 -25 -14 -52 -29 -120 -69 -281 -259
-327 -387 -25 -68 -25 -68 -154 -101 -93 -23 -125 -50 -125 -103 0 -19 32
-159 71 -311 79 -311 83 -352 34 -367 -16 -5 -37 -11 -45 -14 -8 -4 -33 -12
-55 -19 -55 -16 -144 -56 -177 -77 -22 -16 -99 -48 -148 -63 -10 -4 -30 18
-60 66 -141 223 -173 272 -222 339 -72 101 -118 151 -145 162 -29 11 -57 0
-153 -58 -175 -106 -333 -214 -384 -262 -23 -22 -62 -58 -88 -82 -39 -34 -48
-48 -48 -75 0 -54 12 -73 136 -214 66 -74 163 -185 217 -247 l98 -112 -90 -93
c-106 -111 -197 -220 -206 -248 -3 -11 -10 -20 -14 -20 -4 0 -131 77 -282 172
-247 155 -279 172 -326 176 -70 6 -90 -9 -144 -103 -24 -42 -59 -101 -78 -133
-18 -31 -73 -136 -122 -232 -72 -141 -89 -183 -89 -218 0 -73 27 -92 350 -231
157 -68 289 -128 294 -132 5 -5 -8 -61 -32 -136 -22 -70 -48 -162 -57 -203
-30 -137 -35 -150 -64 -150 -14 0 -136 14 -271 30 -365 45 -424 40 -456 -35
-8 -19 -18 -99 -24 -177 -5 -79 -15 -203 -21 -277 -16 -183 -9 -265 23 -298
14 -13 42 -28 64 -33 21 -5 172 -10 335 -10 163 0 310 -3 327 -6 30 -6 30 -6
35 -88 8 -108 20 -185 46 -276 12 -41 21 -84 21 -96 0 -24 4 -23 -270 -114
-283 -94 -322 -110 -362 -149 -50 -47 -56 -81 -25 -162 14 -35 39 -104 57
-154 17 -49 45 -117 61 -150 15 -33 53 -112 82 -176 66 -141 83 -159 150 -159
40 0 67 9 141 49 50 27 134 71 186 98 52 28 143 75 201 107 l106 56 42 -70
c24 -39 55 -85 70 -103 14 -18 39 -52 55 -76 16 -24 48 -69 72 -98 24 -30 44
-57 44 -60 0 -4 -105 -113 -234 -242 -256 -259 -277 -288 -239 -340 42 -57
526 -473 582 -500 25 -12 33 -11 73 7 41 18 63 45 234 280 104 144 195 261
203 262 8 0 22 -6 30 -14 17 -15 133 -77 294 -158 53 -27 97 -52 97 -56 0 -5
-21 -64 -46 -133 -45 -121 -55 -149 -128 -353 -37 -103 -47 -187 -26 -226 18
-34 333 -123 633 -180 88 -17 163 -27 169 -24 25 16 52 111 107 385 33 162 63
302 66 312 9 21 50 22 160 2 44 -8 140 -14 213 -15 72 0 132 -3 132 -6 0 -4 7
-50 15 -103 8 -53 26 -186 40 -296 28 -216 44 -275 83 -305 36 -29 72 -25 286
24 188 44 408 86 450 86 12 0 32 9 44 20 29 28 30 119 1 215 -11 39 -24 84
-29 100 -10 35 -23 80 -80 268 -23 77 -39 141 -36 144 3 3 29 13 58 23 l52 17
62 -48 c51 -41 75 -52 148 -69 48 -11 100 -19 114 -18 20 1 56 -20 139 -82 98
-73 113 -88 118 -119 8 -48 79 -137 142 -182 39 -27 75 -41 155 -59 95 -21
110 -28 185 -83 l82 -61 17 -72 c32 -144 138 -246 295 -283 l86 -20 89 21 c73
17 101 29 159 71 97 69 487 376 505 397 8 9 44 38 80 63 36 25 164 124 284
219 211 166 305 258 306 300 0 11 16 20 53 28 67 16 78 22 162 85 45 34 86 75
115 118 41 60 49 67 87 73 51 8 90 34 394 273 227 178 293 243 313 307 5 16
20 24 62 32 95 20 209 108 284 221 l54 79 65 17 c47 12 86 31 136 67 136 99
474 369 499 398 13 17 29 30 34 30 25 0 552 415 586 463 15 20 43 44 61 51 45
19 140 89 191 140 22 23 61 54 87 69 26 16 157 114 290 218 230 180 298 245
332 315 12 26 23 33 69 43 133 30 306 204 335 338 17 74 16 73 50 63 44 -12
208 29 257 65 95 71 533 416 536 423 2 4 33 28 69 54 36 26 166 126 290 223
261 206 285 234 318 370 l22 91 -22 89 c-28 113 -73 181 -160 242 -34 23 -70
43 -78 43 -11 0 -30 35 -59 108 -40 98 -43 113 -37 164 16 131 -52 296 -153
366 -42 29 -50 43 -100 159 l-54 128 13 66 c10 57 9 77 -6 145 -19 87 -29 109
-77 172 -54 69 -133 116 -231 137 -84 18 -87 18 -179 -4 -51 -11 -96 -21 -99
-21 -9 0 -213 160 -217 169 -1 4 22 43 51 87 29 45 79 129 111 187 32 59 61
107 65 107 4 0 71 -29 149 -65 171 -78 185 -82 216 -62 28 19 96 175 173 397
54 158 64 218 39 240 -8 6 -91 33 -183 59 -122 34 -168 51 -167 62 1 7 11 59
23 114 11 55 27 148 34 208 8 59 16 109 18 110 2 2 81 -1 176 -6 194 -11 215
-6 227 54 8 44 6 406 -3 507 -11 118 -12 118 -169 113 -70 -3 -154 -5 -186 -5
l-59 -1 -19 110 c-10 61 -29 156 -43 213 -14 57 -25 107 -25 112 0 5 71 32
158 60 155 52 202 77 202 111 0 25 -73 231 -125 354 -70 164 -102 223 -125
230 -28 9 -74 -8 -224 -82 -103 -51 -132 -61 -141 -51 -6 7 -37 56 -67 108
-31 52 -81 130 -112 174 -46 64 -54 81 -45 93 7 8 58 52 114 98 106 87 155
137 155 159 0 23 -52 91 -164 216 -141 158 -257 260 -294 260 -22 0 -51 -24
-153 -131 l-126 -131 -94 74 c-52 40 -133 100 -181 132 l-87 59 40 71 c22 39
61 113 87 165 43 88 45 95 31 119 -18 33 -219 143 -394 216 -71 30 -140 57
-153 61 -39 11 -73 -37 -137 -197 -43 -105 -65 -148 -76 -148 -9 0 -36 7 -60
16 -24 8 -114 33 -199 55 -85 22 -156 42 -159 44 -2 3 6 78 18 168 22 166 21
198 -11 225 -40 33 -594 69 -630 41z m352 -669 c22 -11 46 -33 55 -50 15 -30
21 -100 8 -100 -23 0 -253 107 -253 118 0 22 62 52 108 52 23 0 61 -9 82 -20z
m9 -196 l35 -15 -22 -21 c-15 -16 -37 -23 -80 -26 -55 -4 -61 -2 -95 28 -32
28 -57 79 -57 117 0 7 38 -5 93 -29 50 -22 107 -46 126 -54z m-1816 -318 c18
-7 42 -24 53 -37 25 -28 47 -90 37 -100 -6 -6 -257 47 -272 58 -11 8 22 55 51
73 39 23 86 26 131 6z m1828 -22 c128 -20 223 -45 433 -111 104 -33 181 -63
184 -72 16 -43 -85 -381 -187 -621 -120 -281 -293 -610 -322 -610 -6 0 -29 10
-52 22 -23 12 -85 34 -137 48 l-95 27 -2 59 c-14 366 -139 838 -311 1181 l-41
81 72 6 c40 4 92 8 117 10 74 6 240 -3 341 -20z m-1005 -131 c45 -50 131 -186
184 -292 97 -194 170 -412 215 -641 14 -74 28 -145 31 -157 2 -13 3 -23 1 -23
-2 0 -41 25 -87 55 -129 85 -269 150 -455 211 -373 122 -599 157 -768 120 -69
-16 -111 -15 -169 1 -15 3 -3 23 61 101 43 53 99 115 122 138 81 76 278 234
350 280 71 47 361 195 428 219 51 19 59 18 87 -12z m-868 -22 c63 -16 116 -31
118 -34 8 -8 -37 -57 -66 -72 -50 -26 -104 -19 -146 17 -33 30 -64 81 -64 108
0 16 37 12 158 -19z m3542 -136 c35 -18 57 -56 66 -114 4 -28 3 -41 -5 -41
-10 0 -230 106 -241 117 -3 3 8 16 23 29 34 29 110 33 157 9z m-85 -156 c125
-66 130 -76 58 -100 -81 -27 -183 40 -183 121 0 22 2 40 5 40 3 0 57 -27 120
-61z m-5768 11 c317 -47 491 -99 738 -220 293 -144 495 -283 685 -470 215
-212 411 -513 478 -735 44 -147 53 -198 87 -515 9 -88 7 -302 -5 -376 -40
-256 -162 -398 -382 -445 -49 -11 -298 -7 -370 5 -380 64 -723 205 -1003 412
-108 79 -258 227 -334 328 -130 173 -327 496 -372 609 -37 92 -149 418 -159
463 -6 24 -19 105 -29 181 -48 340 -46 457 11 571 50 99 141 169 263 198 77
19 239 16 392 -6z m5364 -123 c131 -113 293 -306 384 -456 73 -122 175 -331
175 -359 0 -28 -133 -147 -258 -232 -104 -69 -294 -155 -487 -219 -182 -60
-362 -109 -423 -113 -32 -3 -34 -1 -64 72 -17 41 -50 104 -73 141 l-42 65 55
70 c173 220 444 704 583 1041 19 45 36 83 39 83 3 0 53 -42 111 -93z m-2695
-716 c141 -35 380 -118 481 -167 284 -139 601 -406 759 -639 45 -66 90 -138
101 -160 68 -136 133 -430 133 -597 0 -138 -11 -196 -69 -374 -53 -165 -179
-418 -216 -435 -15 -8 -49 2 -145 42 -293 121 -414 155 -787 224 -235 44 -251
48 -302 83 -153 104 -339 365 -441 620 -70 175 -109 330 -146 580 -22 148 -25
201 -21 327 4 127 8 161 29 222 68 192 146 270 298 297 54 10 249 -4 326 -23z
m-4147 -40 c94 -35 241 -114 381 -206 337 -222 656 -569 849 -922 148 -272
217 -507 242 -829 23 -282 -26 -660 -118 -909 -60 -164 -176 -314 -277 -361
-171 -78 -366 -43 -703 126 -198 99 -321 176 -434 273 -351 300 -596 800 -671
1367 -19 150 -17 493 6 625 38 232 125 528 189 649 17 33 59 87 93 122 51 51
74 66 126 83 91 30 204 24 317 -18z m-1729 -8 c22 -20 31 -38 32 -61 1 -18 -1
-35 -4 -37 -3 -3 -38 15 -78 39 -40 25 -78 47 -84 49 -7 3 -7 9 3 20 23 28 95
22 131 -10z m-85 -97 c38 -24 71 -48 73 -54 5 -15 -42 -26 -74 -18 -38 10 -84
59 -84 90 0 14 3 26 8 25 4 0 38 -20 77 -43z m-1124 -21 c31 -17 49 -49 49
-91 0 -24 0 -24 -90 21 -90 45 -99 58 -56 75 32 13 64 12 97 -5z m-63 -118
c64 -34 80 -46 70 -55 -45 -37 -125 -15 -152 43 -17 36 -20 55 -8 55 4 0 44
-20 90 -43z m898 -23 c179 -37 301 -102 442 -238 137 -133 212 -272 248 -463
95 -506 -320 -1002 -841 -1005 -235 -2 -435 85 -620 267 -91 90 -107 111 -154
206 -189 384 -82 825 263 1084 179 134 444 194 662 149z m9670 -494 c13 -197
-24 -502 -87 -730 -26 -91 -117 -327 -129 -335 -12 -7 -171 36 -320 87 -134
45 -510 228 -655 318 -135 84 -235 149 -235 154 0 2 11 28 24 57 13 30 32 88
42 130 l17 76 94 7 c218 15 514 80 738 161 129 47 364 151 445 198 l45 26 7
-26 c4 -15 10 -70 14 -123z m497 75 c43 -20 77 -73 77 -118 0 -20 -2 -37 -5
-37 -3 0 -57 27 -120 61 -115 61 -115 61 -93 78 44 35 92 40 141 16z m-68
-152 c63 -32 114 -62 112 -68 -6 -18 -61 -39 -109 -39 -53 -1 -91 26 -114 81
-14 31 -19 83 -9 83 3 0 57 -26 120 -57z m-9135 -93 c0 -42 -17 -53 -39 -26
-10 12 -9 20 4 40 24 37 35 32 35 -14z m-27 -94 c13 -10 17 -25 15 -52 l-3
-38 -17 26 c-21 31 -34 78 -22 78 5 0 17 -7 27 -14z m-2202 -182 c34 -17 67
-80 51 -96 -12 -12 -164 42 -170 60 -4 12 54 52 76 52 7 0 27 -7 43 -16z m-57
-125 c88 -32 99 -46 50 -68 -55 -25 -106 -4 -130 55 -15 35 -17 44 -10 44 3 0
43 -14 90 -31z m9617 -498 c204 -138 557 -314 795 -397 43 -15 82 -30 87 -34
13 -11 -206 -232 -329 -331 -142 -115 -277 -205 -399 -266 -74 -38 -205 -93
-219 -93 -20 0 -195 353 -266 534 l-42 109 20 36 c29 52 115 317 147 454 l27
117 47 -35 c25 -20 85 -62 132 -94z m-7591 -76 c16 -8 34 -24 40 -34 14 -28
13 -64 -2 -59 -7 3 -51 18 -97 33 l-85 28 28 23 c31 28 74 31 116 9z m3796
-50 c103 -18 232 -54 361 -101 143 -52 213 -57 731 -55 479 2 646 -5 884 -40
363 -52 772 -195 939 -329 133 -106 272 -304 294 -417 13 -72 16 -90 21 -132
6 -64 5 -198 -2 -246 -3 -22 -6 -47 -6 -55 0 -25 -82 -315 -90 -318 -5 -2 -8
-11 -8 -21 0 -9 -7 -26 -15 -37 -8 -10 -15 -27 -15 -36 0 -10 -4 -18 -10 -18
-5 0 -10 -10 -10 -22 0 -12 -3 -18 -7 -15 -3 4 -17 -16 -31 -43 -13 -28 -28
-50 -33 -50 -5 0 -9 -7 -9 -15 0 -9 -7 -18 -15 -21 -8 -4 -15 -12 -15 -20 0
-8 -4 -14 -10 -14 -5 0 -10 -6 -10 -13 0 -7 -8 -20 -17 -28 -31 -28 -83 -91
-83 -101 0 -5 -4 -7 -9 -3 -5 3 -12 -4 -16 -15 -3 -11 -10 -20 -15 -20 -5 0
-25 -15 -44 -34 -20 -18 -55 -46 -78 -62 -24 -16 -52 -37 -62 -46 -11 -10 -25
-18 -32 -18 -6 0 -14 -6 -17 -13 -2 -7 -24 -23 -48 -35 -24 -13 -57 -31 -74
-40 -39 -23 -59 -22 -63 3 -7 35 -79 120 -133 159 -39 27 -39 19 -4 -35 117
-173 114 -477 -7 -710 -127 -246 -454 -512 -748 -608 -232 -76 -444 -61 -662
48 -54 26 -98 45 -98 41 0 -16 65 -102 93 -125 l32 -25 -85 -82 c-209 -203
-425 -326 -695 -395 -123 -31 -383 -43 -516 -23 -165 24 -347 91 -476 177
-135 89 -306 283 -369 418 -101 217 -143 457 -130 735 23 472 130 840 421
1449 52 109 103 232 115 276 11 44 32 179 46 300 30 268 47 358 85 455 39 96
78 157 138 213 157 147 368 203 607 162z m-3852 -66 c47 -17 83 -36 80 -41
-12 -19 -76 -39 -104 -33 -15 3 -37 16 -48 28 -23 25 -40 77 -24 77 5 0 49
-14 96 -31z m-1117 -69 c23 -14 34 -29 39 -55 3 -20 4 -38 2 -41 -6 -5 -168
74 -168 82 0 7 62 33 80 34 8 0 29 -9 47 -20z m-64 -106 c88 -45 86 -43 63
-60 -35 -25 -94 -18 -127 15 -28 29 -40 81 -19 81 6 0 43 -16 83 -36z m10063
-319 c34 -22 57 -80 50 -123 -3 -19 -7 -36 -10 -39 -10 -10 -227 137 -220 149
24 38 130 46 180 13z m-103 -149 l108 -70 -20 -20 c-14 -14 -38 -21 -78 -24
-49 -3 -62 0 -87 19 -16 12 -35 37 -42 55 -21 50 -17 122 6 112 3 -2 54 -34
113 -72z m-7640 -161 c119 -34 219 -82 390 -187 354 -216 593 -433 753 -683
53 -83 121 -253 138 -345 14 -72 14 -83 -4 -158 -49 -205 -80 -537 -80 -860
l0 -197 -57 -32 c-56 -31 -150 -53 -283 -68 -69 -7 -302 11 -395 31 -260 57
-479 177 -665 363 -235 236 -365 511 -425 896 -25 161 -31 484 -11 646 19 157
64 337 105 426 32 67 98 146 143 169 76 39 254 39 391 -1z m7746 -319 c29 -30
50 -59 47 -65 -4 -6 -32 -27 -64 -48 -31 -21 -113 -82 -181 -135 -69 -54 -127
-98 -131 -98 -7 0 -83 131 -78 134 122 87 189 138 258 195 47 39 87 70 90 71
3 0 30 -24 59 -54z m821 34 c9 -17 7 -26 -14 -51 -46 -54 -39 -83 95 -404 67
-159 122 -291 123 -292 1 -1 16 5 34 14 30 15 35 15 49 0 15 -15 14 -21 -5
-82 l-22 -65 107 -258 c59 -141 118 -267 130 -279 26 -26 53 -29 92 -9 31 17
55 7 49 -19 -4 -22 -461 -385 -483 -385 -26 0 -28 28 -6 56 23 29 27 64 11 94
-8 14 -451 350 -508 384 -14 9 -11 0 122 -318 53 -126 103 -240 112 -253 25
-40 59 -49 100 -29 28 13 39 14 50 5 8 -7 14 -18 12 -25 -3 -14 -471 -384
-486 -384 -5 0 -15 7 -22 15 -11 13 -9 19 7 38 62 69 48 87 -215 282 l-227
169 -80 1 c-69 0 -80 2 -83 18 -2 11 6 30 19 43 22 24 23 25 3 38 -10 8 -125
94 -254 190 -129 97 -252 181 -272 187 -32 10 -42 9 -77 -9 -36 -19 -42 -20
-56 -6 -8 9 -15 19 -15 24 0 12 460 373 478 374 31 2 35 -28 8 -68 -29 -44
-31 -55 -13 -78 11 -15 552 -418 560 -418 3 0 -57 147 -133 328 l-138 327 -38
-2 c-22 -1 -52 -3 -69 -5 -24 -2 -31 1 -33 17 -2 16 45 58 217 193 121 95 226
175 235 178 9 3 19 -3 26 -16 9 -17 7 -26 -14 -51 -32 -38 -33 -69 -3 -96 35
-32 540 -403 544 -399 4 4 -257 627 -270 644 -13 17 -52 15 -88 -4 -32 -16
-59 -6 -59 22 0 13 464 384 480 384 5 0 14 -9 20 -20z m-1756 -682 c31 -70 56
-129 56 -131 0 -2 -58 -50 -129 -106 -71 -55 -145 -123 -165 -150 -22 -30 -47
-51 -64 -56 -44 -10 -85 -41 -517 -380 -464 -365 -469 -370 -506 -518 l-21
-87 21 -93 c38 -162 131 -257 292 -297 84 -22 84 -22 134 -86 29 -38 49 -74
47 -86 -1 -11 8 -61 19 -112 18 -74 30 -102 65 -148 25 -34 39 -60 33 -64 -6
-3 -11 -4 -13 -3 -74 109 -138 153 -259 181 -87 19 -102 26 -183 87 l-88 66
-19 74 c-35 141 -136 243 -273 277 -38 9 -72 20 -76 23 -4 4 20 44 53 91 33
46 76 111 94 145 36 63 90 238 121 388 17 79 21 89 50 106 96 57 274 204 372
306 95 101 113 115 141 115 48 0 303 40 323 51 38 20 42 75 18 243 -12 87 -21
158 -19 160 2 1 51 15 109 30 58 15 155 45 215 65 61 21 111 38 111 37 1 -1
27 -58 58 -128z m-7784 -580 c45 -184 148 -439 221 -544 31 -45 31 -64 0 -64
-9 0 -70 -27 -135 -60 -65 -33 -120 -60 -122 -60 -1 0 -37 42 -80 93 -130 155
-164 187 -199 187 -41 0 -100 -43 -237 -171 -140 -131 -228 -232 -228 -263 0
-18 33 -56 123 -142 100 -96 114 -112 77 -92 -208 116 -510 290 -510 294 0 14
157 227 211 287 78 86 315 285 416 349 117 75 410 224 445 227 4 1 12 -18 18
-41z m7837 -330 c156 -99 193 -127 191 -143 -3 -17 -13 -21 -80 -26 -61 -5
-89 -13 -138 -40 -64 -36 -368 -268 -369 -282 -1 -5 20 -36 47 -70 26 -33 50
-65 53 -70 4 -5 22 2 41 16 47 36 91 53 175 67 85 14 102 25 112 70 9 47 35
50 78 8 70 -66 92 -170 54 -253 -26 -58 -101 -121 -162 -136 -99 -26 -100 -22
82 -253 89 -114 171 -213 183 -221 27 -19 79 -19 117 1 36 18 62 12 57 -15 -3
-17 -479 -401 -498 -401 -4 0 -13 7 -20 15 -10 12 -7 20 13 45 65 77 57 97
-143 351 l-169 216 -49 -9 c-56 -10 -102 3 -102 28 0 9 9 27 20 41 25 32 25
59 1 99 -24 40 -273 358 -314 401 -41 43 -85 51 -136 25 -37 -19 -40 -20 -55
-4 -8 10 -12 23 -8 29 13 21 797 633 811 633 8 0 101 -55 208 -122z m-7276
-828 c9 -63 19 -142 23 -175 l6 -61 -48 -17 c-85 -31 -196 -103 -251 -163
-106 -116 -157 -208 -187 -340 -9 -43 -20 -83 -24 -87 -6 -7 -298 -47 -346
-47 -19 0 -20 3 -12 73 12 104 53 258 92 341 68 148 209 322 341 422 108 80
320 177 375 171 11 -2 19 -31 31 -117z m7981 50 c49 -14 94 -53 119 -103 l21
-40 -176 5 c-97 3 -179 8 -182 11 -10 9 34 74 65 96 24 17 78 38 106 40 6 1
27 -4 47 -9z m-9662 -115 c79 -41 182 -99 229 -129 47 -29 111 -67 141 -84 30
-17 53 -32 50 -32 -3 0 -65 14 -138 30 -133 30 -186 36 -217 24 -47 -18 -117
-282 -131 -494 l-6 -95 31 -29 c29 -28 39 -30 163 -42 73 -7 148 -13 166 -13
18 -1 34 -7 36 -13 2 -7 13 -83 25 -168 12 -85 24 -165 27 -176 5 -20 -4 -26
-93 -59 -189 -72 -243 -97 -253 -115 -14 -27 -12 -81 5 -131 30 -87 188 -390
213 -409 50 -40 106 -20 312 109 24 15 24 15 11 -2 -23 -29 -321 -301 -391
-357 l-65 -52 -23 29 c-141 170 -326 556 -388 807 -89 367 -82 773 20 1150 32
115 116 326 130 326 2 0 68 -34 146 -75z m2043 26 c107 -60 398 -144 597 -172
78 -11 87 -15 117 -48 78 -88 202 -347 177 -371 -8 -8 -278 -50 -324 -50 -15
0 -29 19 -56 73 -52 103 -102 165 -191 237 -95 77 -171 114 -281 137 -55 11
-83 22 -86 33 -8 28 -18 190 -12 190 4 0 30 -13 59 -29z m7625 -141 c139 0
144 -4 90 -66 -40 -45 -82 -64 -144 -64 -61 0 -110 25 -145 73 -44 60 -40 71
24 63 28 -3 107 -6 175 -6z m-2423 -114 c-32 -44 -39 -66 -29 -94 7 -19 81
-80 249 -204 132 -97 250 -179 263 -183 12 -3 35 1 51 9 24 13 31 13 46 2 16
-11 17 -19 8 -53 l-10 -40 175 -129 c334 -246 330 -244 376 -244 22 1 52 7 66
15 27 14 50 5 50 -21 0 -7 -106 -97 -236 -199 -189 -148 -239 -183 -250 -174
-20 16 -17 43 6 64 34 30 26 75 -18 106 l-37 27 -122 -98 c-68 -53 -126 -100
-129 -103 -9 -9 16 -69 34 -84 21 -17 62 -16 86 2 21 16 56 4 56 -20 0 -19
-468 -385 -485 -379 -23 9 -25 33 -6 51 26 25 41 57 41 87 0 14 -52 148 -116
298 -64 150 -118 279 -121 286 -3 6 -15 12 -27 12 -65 1 -88 27 -56 67 11 14
20 37 20 51 0 39 -219 554 -247 580 -28 26 -60 28 -92 6 -21 -15 -24 -15 -38
-1 -9 9 -13 22 -10 30 3 8 112 99 243 201 227 179 237 186 255 170 18 -16 18
-19 4 -38z m-862 -241 l-24 -99 22 -91 c12 -49 26 -96 32 -103 17 -21 2 -23
-64 -7 -95 22 -207 19 -334 -10 -173 -39 -214 -55 -310 -120 -49 -33 -96 -64
-103 -69 -11 -7 -13 23 -11 162 l3 171 71 49 c38 28 97 74 129 103 l59 53 166
1 c151 1 176 4 276 31 61 17 111 30 112 30 0 -1 -10 -46 -24 -101z m-2685
-252 c46 -31 129 -75 185 -99 96 -40 263 -94 293 -94 16 0 10 -132 -11 -250
-8 -41 -17 -95 -21 -120 -18 -121 -120 -440 -146 -456 -5 -3 -109 42 -231 99
-365 173 -408 204 -167 122 75 -26 140 -43 151 -40 31 10 47 48 95 235 23 91
43 210 50 305 9 129 8 130 -166 144 -74 6 -159 14 -187 17 l-53 6 0 62 c0 72
-15 213 -26 240 -4 11 28 -11 72 -48 43 -37 116 -93 162 -123z m-1703 81 c103
-36 166 -142 144 -247 -25 -117 -96 -184 -207 -194 -187 -17 -313 187 -214
346 60 97 165 133 277 95z m6680 -53 c22 -10 50 -29 62 -42 22 -25 57 -98 50
-105 -8 -9 -347 51 -347 61 0 16 71 82 100 94 39 15 91 12 135 -8z m-5685
-215 c0 -105 -54 -316 -110 -426 -39 -77 -155 -232 -221 -296 -70 -66 -147
-120 -253 -178 -65 -35 -196 -90 -202 -84 -2 3 -44 337 -44 355 0 6 14 16 31
22 51 18 160 90 212 140 99 94 186 252 208 377 7 38 16 73 20 78 6 6 271 49
347 55 8 1 12 -14 12 -43z m5628 0 c79 -13 146 -27 150 -30 9 -10 -60 -77 -95
-92 -96 -41 -217 19 -248 124 -5 19 -3 22 22 22 15 0 92 -11 171 -24z m-7334
-278 c110 -210 304 -349 521 -374 29 -4 57 -9 63 -13 12 -7 32 -259 25 -319
l-5 -43 -67 6 c-257 25 -496 141 -693 338 -85 85 -189 259 -232 390 -21 62
-20 87 2 88 9 0 78 7 152 14 74 7 146 12 159 11 19 -1 33 -19 75 -98z m5031
47 c110 -23 189 -68 276 -154 54 -54 85 -95 108 -143 18 -38 34 -68 37 -68 3
0 19 7 35 16 17 8 37 13 45 10 29 -11 11 -105 -32 -163 -13 -17 -24 -44 -24
-60 0 -51 -28 -160 -55 -217 -42 -88 -97 -149 -228 -253 -67 -53 -128 -102
-136 -109 -11 -10 3 -33 84 -136 53 -67 106 -128 118 -135 32 -18 84 -16 118
4 27 16 30 16 46 0 16 -16 16 -18 -2 -36 -47 -45 -481 -381 -489 -378 -5 2
-14 10 -20 19 -7 12 -3 24 17 48 20 24 27 42 27 75 0 41 -8 54 -112 187 -61
79 -139 178 -172 220 -54 69 -63 77 -86 71 -45 -12 -99 -8 -116 9 -16 15 -15
18 5 44 29 36 26 81 -7 130 -15 22 -91 122 -169 221 -165 209 -175 217 -259
188 -56 -19 -83 -13 -71 17 5 16 621 502 677 535 106 63 253 86 385 58z
m-1365 -271 c82 -6 84 -7 63 -24 -31 -25 -103 -130 -103 -150 0 -10 -6 -22
-12 -27 -14 -11 -151 -44 -157 -38 -2 2 3 32 12 67 8 35 21 88 28 118 13 62
23 72 59 66 14 -3 63 -8 110 -12z m-1362 -594 c111 -63 202 -119 202 -125 0
-13 -112 -159 -186 -242 -65 -74 -243 -236 -324 -297 -401 -297 -871 -456
-1353 -456 -327 0 -671 70 -937 191 -200 91 -495 283 -590 384 -21 22 -22 27
-9 39 25 22 410 350 443 376 l31 25 -18 -29 c-84 -129 -137 -228 -137 -254 0
-16 9 -41 20 -55 55 -69 402 -256 493 -265 68 -7 83 12 163 193 l68 153 46
-13 c25 -8 86 -21 135 -30 50 -9 106 -19 125 -23 l35 -7 6 -163 c6 -176 14
-199 70 -230 42 -23 332 1 517 44 43 9 72 48 72 97 0 36 -30 208 -55 312 -4
18 5 24 68 43 40 12 90 33 112 47 59 36 157 87 159 83 23 -35 224 -272 237
-279 31 -16 55 -10 110 28 73 50 226 191 310 286 102 115 101 117 -56 259 -69
61 -125 113 -125 114 0 2 58 -30 368 -206z m1362 -17 c0 -7 -9 -23 -20 -35
-11 -12 -23 -37 -26 -55 -7 -35 6 -68 188 -500 l59 -142 36 17 c33 16 36 16
48 -2 11 -15 11 -25 -1 -64 -8 -26 -17 -56 -20 -67 -6 -25 198 -520 228 -552
24 -26 61 -29 98 -8 26 14 50 5 50 -20 0 -15 -453 -375 -480 -382 -9 -2 -22 2
-28 10 -9 11 -6 21 13 47 28 38 30 55 12 87 -12 21 -508 395 -515 388 -4 -4
226 -556 243 -582 21 -31 68 -38 105 -17 28 17 31 17 47 2 13 -14 14 -20 4
-32 -26 -31 -472 -376 -487 -376 -25 0 -27 28 -5 56 25 31 27 71 6 101 -8 11
-114 94 -235 184 l-222 164 -76 0 c-66 0 -77 2 -80 18 -2 10 4 27 14 38 13 14
15 24 9 35 -6 8 -122 97 -260 199 -238 176 -251 185 -295 185 -25 0 -55 -7
-66 -15 -18 -12 -24 -12 -39 -1 -10 7 -16 20 -13 28 8 19 455 370 475 372 8 0
20 -6 26 -15 8 -13 5 -24 -16 -49 -31 -36 -35 -70 -9 -93 33 -30 546 -406 549
-403 5 4 -257 628 -269 644 -14 16 -53 15 -88 -3 -26 -13 -30 -13 -44 1 -9 8
-16 19 -16 24 0 5 82 74 183 153 284 224 277 219 293 206 19 -16 17 -36 -6
-61 -11 -12 -20 -36 -20 -53 0 -29 17 -44 281 -239 154 -114 282 -206 284
-204 1 2 -59 149 -134 328 -129 307 -138 325 -164 328 -15 2 -42 -4 -59 -13
-28 -13 -34 -14 -46 -1 -8 8 -12 21 -9 29 3 8 88 80 189 159 286 225 278 220
294 207 8 -6 14 -18 14 -26z m2068 10 c32 -16 73 -61 85 -95 6 -17 -4 -18
-116 -18 -139 0 -227 9 -227 22 0 5 17 27 38 49 63 67 136 81 220 42z m-39
-203 c131 0 142 -5 112 -54 -48 -77 -161 -109 -240 -68 -38 19 -85 73 -96 111
-7 24 -7 24 55 18 35 -4 111 -7 169 -7z m-1119 -670 c43 -12 93 -61 115 -114
9 -21 15 -40 13 -41 -3 -4 -273 22 -325 31 -18 3 -33 9 -33 14 0 20 67 84 105
101 46 21 75 23 125 9z m-48 -231 c76 -7 143 -16 149 -19 16 -11 -8 -45 -54
-77 -53 -37 -122 -42 -180 -14 -70 34 -133 142 -74 128 12 -3 84 -11 159 -18z"/>
<path d="M9583 4298 c30 -79 83 -198 88 -198 3 0 27 16 52 36 l47 37 -92 68
c-50 38 -93 69 -96 69 -2 0 -2 -6 1 -12z"/>
<path d="M8262 3788 c-51 -20 -274 -199 -264 -212 77 -101 217 -276 221 -276
17 0 249 192 264 219 68 117 -5 263 -139 276 -27 3 -64 -1 -82 -7z"/>
</g>
</svg>
